<?xml version="1.0" encoding="UTF-8"?><svg id="Layer_1" xmlns="http://www.w3.org/2000/svg" xmlns:xlink="http://www.w3.org/1999/xlink" viewBox="0 0 1080 1080"><defs><linearGradient id="linear-gradient" x1="72.27" y1="810.044" x2="1007.73" y2="269.956" gradientUnits="userSpaceOnUse"><stop offset="0" stop-color="#dd2c00"/><stop offset="1" stop-color="#ff9100"/></linearGradient></defs><path d="M540,0C241.77,0,0,241.77,0,540s241.77,540,540,540,540-241.77,540-540S838.23,0,540,0ZM868.13,678.63c-17.94,42.41-43.61,80.49-76.31,113.19-32.7,32.7-70.78,58.37-113.19,76.31-43.92,18.58-90.56,28-138.63,28h-.44c-54.57,0-109.24-12.86-158.12-37.19l-.36-.19c-6.25-3.24-13.44-4.09-20.28-2.4l-73.51,19.69c-11.51,3.07-23.66,3.06-35.14-.01-17.56-4.7-32.24-15.95-41.34-31.69-9.09-15.73-11.51-34.07-6.81-51.63l19.7-73.7c1.69-6.34.75-13.58-2.65-20.38-24.68-49.61-37.17-102.97-37.17-158.63,0-48.07,9.41-94.71,27.99-138.63,17.94-42.41,43.61-80.49,76.31-113.19s70.78-58.37,113.19-76.31c43.92-18.58,90.56-27.99,138.63-27.99.19-.01.39-.01.58-.01,62.23,0,123.6,16.48,177.5,47.67,11.95,6.92,16.04,22.21,9.12,34.16-6.92,11.95-22.21,16.03-34.16,9.12-46.29-26.79-99.02-40.95-152.5-40.95-.17,0-.33.01-.5.01-168.84,0-306.16,137.32-306.16,306.12,0,47.87,10.73,93.73,31.92,136.32,8.84,17.69,11.05,37.46,6.2,55.6l-19.7,73.71c-1.25,4.66-.61,9.52,1.81,13.7,2.41,4.17,6.3,7.15,10.96,8.4,3.04.81,6.27.82,9.31,0l74.03-19.82c18.67-4.71,38.36-2.46,55.48,6.35,41.94,20.85,88.85,31.87,135.7,31.87h.38c168.83,0,306.15-137.33,306.15-306.13,0-53.85-14.15-106.77-40.94-153.04-6.91-11.95-2.83-27.24,9.11-34.16,11.95-6.92,27.25-2.84,34.17,9.11,31.18,53.87,47.66,115.45,47.66,178.09,0,48.07-9.41,94.71-27.99,138.63ZM697.45,473.78v132.44c0,13.81-11.19,25-25,25s-25-11.19-25-25v-132.44c0-13.81,11.19-25,25-25s25,11.19,25,25ZM565,407.55v264.9c0,13.81-11.19,25-25,25s-25-11.19-25-25v-264.9c0-13.81,11.19-25,25-25s25,11.19,25,25ZM432.55,473.78v132.44c0,13.81-11.19,25-25,25s-25-11.19-25-25v-132.44c0-13.81,11.19-25,25-25s25,11.19,25,25Z" style="fill:url(#linear-gradient); stroke:#000; stroke-miterlimit:10;"/></svg>